<svg version="1.2" xmlns="http://www.w3.org/2000/svg" viewBox="0 0 256 256" width="256" height="256">
	<title>favicon</title>
	<style>
		.s0 { fill: #ffffff } 
		.s1 { fill: #000000 } 
	</style>
	<g>
		<path id="Shape 1" fill-rule="evenodd" class="s0" d="m41 13h174c15.5 0 28 12.5 28 28v174c0 15.5-12.5 28-28 28h-174c-15.5 0-28-12.5-28-28v-174c0-15.5 12.5-28 28-28z"/>
		<path class="s1" d="m51 55v18h47c25.9 0 47 0.2 47 0.5 0 0.3-5.2 6.8-11.6 14.5l-11.6 14-4.6-3.3c-12.2-8.8-18-12.7-18.8-12.7-0.5 0-3.5 3.8-6.7 8.5l-5.7 8.4 3.2 2.4c1.8 1.3 6.5 4.5 10.3 7.2 3.9 2.6 7.4 5.1 7.8 5.5 0.4 0.4-12.8 17.1-29.3 37.1l-30.1 36.4 0.3 13.8 0.3 13.7h79 79l0.3-17.5 0.2-17.5-50.1-0.2-50.1-0.3 17.2-20.8c9.4-11.4 17.3-20.7 17.6-20.7 0.3 0 5.4 3.4 11.4 7.5l10.9 7.6 4.4-6.3c2.4-3.5 5.2-7.5 6.1-8.9l1.6-2.6-10-6.8c-5.5-3.8-10-7.3-10-7.7 0-0.5 10.8-13.9 24-29.8l24-29v-14.5-14.5h-76.5-76.5z"/>
	</g>
</svg>